<svg xmlns="http://www.w3.org/2000/svg" xmlns:xlink="http://www.w3.org/1999/xlink" id="Layer_1" x="0" y="0" version="1.1" viewBox="0 0 18 18" xml:space="preserve" style="enable-background:new 0 0 18 18"><style type="text/css">.st0,.st1{fill:#858585}.st1{fill-rule:evenodd;clip-rule:evenodd}</style><path d="M11.9,7.9c-1.2,0-1.5-0.8-1.8-2.4C10,4.4,9.8,2.5,8,2.5H4.6c-1.8,0-2,1.9-2.1,2.9C2.2,7.1,1.9,7.9,0.7,7.9v1.9	h11.2h5.4V7.9H11.9z" class="st0"/><path d="M16,5.7c-0.1-1-0.3-2.9-2.1-2.9c0,0-3.8,0-3.9,0c-0.1,0-0.1,0.2-0.1,0.2c1.1,0.5,1.3,1.9,1.4,2.7	c0.1,1.1,0.3,1.5,0.8,1.5c0.1,0,4.1,0,4.1,0s0.1,0,0.1-0.1C16.2,6.6,16.1,6.2,16,5.7z" class="st0"/><path d="M8,12.1H3.7v-1.2c0-0.3-0.2-0.4-0.5-0.2l-2.2,1.9c-0.3,0.2-0.3,0.6,0,0.9l2.2,1.9c0.3,0.2,0.5,0.2,0.5-0.2v-1.2	H8V12.1z" class="st1"/><path d="M17.1,12.6l-2.2-1.9c-0.3-0.2-0.5-0.2-0.5,0.2v1.2H10v1.9h4.3v1.2c0,0.3,0.2,0.4,0.5,0.2l2.2-1.9	C17.4,13.2,17.4,12.8,17.1,12.6z" class="st1"/></svg>